<?xml version="1.0" standalone="no"?>
<!DOCTYPE svg PUBLIC "-//W3C//DTD SVG 20010904//EN"
 "http://www.w3.org/TR/2001/REC-SVG-20010904/DTD/svg10.dtd">
<svg version="1.0" xmlns="http://www.w3.org/2000/svg"
 width="512.000000pt" height="512.000000pt" viewBox="0 0 512.000000 512.000000"
 preserveAspectRatio="xMidYMid meet">
<metadata>
Created by potrace 1.14, written by Peter Selinger 2001-2017
</metadata>
<g transform="translate(0.000000,512.000000) scale(0.100000,-0.100000)"
fill="#000000" stroke="none">
<path d="M0 2560 l0 -2560 2560 0 2560 0 0 2560 0 2560 -2560 0 -2560 0 0
-2560z m1680 160 l0 -660 340 0 340 0 0 -160 0 -160 -540 0 -540 0 0 820 0
820 200 0 200 0 0 -660z m1760 636 c92 -30 188 -86 245 -143 163 -163 203
-472 88 -686 -40 -75 -136 -166 -213 -204 -115 -56 -165 -65 -392 -70 l-208
-5 0 -254 0 -254 -200 0 -200 0 0 821 0 820 413 -3 c362 -4 419 -6 467 -22z"/>
<path d="M2960 2810 l0 -253 143 5 c167 6 208 19 266 85 89 100 75 291 -26
359 -62 42 -86 47 -235 52 l-148 4 0 -252z"/>
</g>
</svg>
